<svg width="32" height="32" viewBox="0 0 32 32" fill="none" xmlns="http://www.w3.org/2000/svg">
<path d="M0 6C0 2.68629 2.68629 0 6 0H26C29.3137 0 32 2.68629 32 6V32H6C2.68629 32 0 29.3137 0 26V6Z" fill="#111112"/>
<path d="M15.9833 11.9648H13.3391C13.2908 11.6228 13.1922 11.3189 13.0433 11.0533C12.8944 10.7836 12.7032 10.5542 12.4698 10.3651C12.2364 10.1759 11.9667 10.031 11.6609 9.9304C11.359 9.82978 11.031 9.77947 10.6768 9.77947C10.0369 9.77947 9.47952 9.93845 9.00462 10.2564C8.52971 10.5703 8.16146 11.0291 7.89986 11.6328C7.63826 12.2325 7.50746 12.9609 7.50746 13.8182C7.50746 14.6996 7.63826 15.4401 7.89986 16.0398C8.16548 16.6394 8.53575 17.0922 9.01065 17.3981C9.48556 17.704 10.0349 17.8569 10.6587 17.8569C11.0089 17.8569 11.3329 17.8106 11.6307 17.718C11.9325 17.6255 12.2002 17.4906 12.4336 17.3136C12.667 17.1325 12.8602 16.9131 13.0131 16.6555C13.1701 16.398 13.2788 16.1042 13.3391 15.7741L15.9833 15.7862C15.9149 16.3537 15.7438 16.901 15.4702 17.4283C15.2005 17.9515 14.8363 18.4203 14.3775 18.8349C13.9227 19.2454 13.3794 19.5714 12.7475 19.8129C12.1197 20.0503 11.4093 20.169 10.6165 20.169C9.51373 20.169 8.5277 19.9195 7.65838 19.4205C6.79309 18.9214 6.1089 18.199 5.60582 17.2532C5.10677 16.3074 4.85724 15.1624 4.85724 13.8182C4.85724 12.4699 5.1108 11.3229 5.6179 10.3771C6.125 9.43134 6.81321 8.71094 7.68253 8.21591C8.55185 7.71686 9.52983 7.46733 10.6165 7.46733C11.3329 7.46733 11.9969 7.56794 12.6087 7.76918C13.2244 7.97041 13.7698 8.2642 14.2447 8.65057C14.7196 9.03291 15.1059 9.50178 15.4038 10.0572C15.7056 10.6126 15.8988 11.2485 15.9833 11.9648Z" fill="white"/>
<path d="M13.7429 25L10.3622 12.6364H11.8835L14.4673 22.706H14.5881L17.2202 12.6364H18.9105L21.5426 22.706H21.6634L24.2472 12.6364H25.7685L22.3878 25H20.8423L18.1136 15.1477H18.017L15.2884 25H13.7429Z" fill="white"/>
</svg>
