<svg width="32" height="32" viewBox="0 0 32 32" fill="none" xmlns="http://www.w3.org/2000/svg">
<path d="M0 6C0 2.68629 2.68629 0 6 0H26C29.3137 0 32 2.68629 32 6V32H6C2.68629 32 0 29.3137 0 26V6Z" fill="white"/>
<path d="M15.9833 12.9648H13.3391C13.2908 12.6228 13.1922 12.3189 13.0433 12.0533C12.8944 11.7836 12.7032 11.5542 12.4698 11.3651C12.2364 11.1759 11.9667 11.031 11.6609 10.9304C11.359 10.8298 11.031 10.7795 10.6768 10.7795C10.0369 10.7795 9.47952 10.9384 9.00462 11.2564C8.52971 11.5703 8.16146 12.0291 7.89986 12.6328C7.63826 13.2325 7.50746 13.9609 7.50746 14.8182C7.50746 15.6996 7.63826 16.4401 7.89986 17.0398C8.16548 17.6394 8.53575 18.0922 9.01065 18.3981C9.48556 18.704 10.0349 18.8569 10.6587 18.8569C11.0089 18.8569 11.3329 18.8106 11.6307 18.718C11.9325 18.6255 12.2002 18.4906 12.4336 18.3136C12.667 18.1325 12.8602 17.9131 13.0131 17.6555C13.1701 17.398 13.2788 17.1042 13.3391 16.7741L15.9833 16.7862C15.9149 17.3537 15.7438 17.901 15.4702 18.4283C15.2005 18.9515 14.8363 19.4203 14.3775 19.8349C13.9227 20.2454 13.3794 20.5714 12.7475 20.8129C12.1197 21.0503 11.4093 21.169 10.6165 21.169C9.51373 21.169 8.5277 20.9195 7.65838 20.4205C6.79309 19.9214 6.1089 19.199 5.60582 18.2532C5.10677 17.3074 4.85724 16.1624 4.85724 14.8182C4.85724 13.4699 5.1108 12.3229 5.6179 11.3771C6.125 10.4313 6.81321 9.71094 7.68253 9.21591C8.55185 8.71686 9.52983 8.46733 10.6165 8.46733C11.3329 8.46733 11.9969 8.56794 12.6087 8.76918C13.2244 8.97041 13.7698 9.2642 14.2447 9.65057C14.7196 10.0329 15.1059 10.5018 15.4038 11.0572C15.7056 11.6126 15.8988 12.2485 15.9833 12.9648Z" fill="black"/>
<path d="M13.7429 26L10.3622 13.6364H11.8835L14.4673 23.706H14.5881L17.2202 13.6364H18.9105L21.5426 23.706H21.6634L24.2472 13.6364H25.7685L22.3878 26H20.8423L18.1136 16.1477H18.017L15.2884 26H13.7429Z" fill="black"/>
</svg>
